<svg width="107" height="74" viewBox="0 0 107 74" fill="none" xmlns="http://www.w3.org/2000/svg">
<path d="M48.8125 31.2031V43.5078C48.8125 48.8464 48.2428 53.4525 47.1035 57.3262C45.9642 61.1673 44.3203 64.3249 42.1719 66.7988C40.056 69.2402 37.5332 71.0469 34.6035 72.2188C31.6738 73.3906 28.4186 73.9766 24.8379 73.9766C21.9733 73.9766 19.304 73.6185 16.8301 72.9023C14.3561 72.1536 12.1263 70.998 10.1406 69.4355C8.1875 67.873 6.49479 65.9036 5.0625 63.5273C3.66276 61.1185 2.58854 58.2539 1.83984 54.9336C1.09115 51.6133 0.716797 47.8047 0.716797 43.5078V31.2031C0.716797 25.8646 1.28646 21.291 2.42578 17.4824C3.59766 13.6413 5.24154 10.5 7.35742 8.05859C9.50586 5.61719 12.0449 3.82682 14.9746 2.6875C17.9043 1.51562 21.1595 0.929688 24.7402 0.929688C27.6048 0.929688 30.2578 1.30404 32.6992 2.05273C35.1732 2.76888 37.403 3.89193 39.3887 5.42188C41.3743 6.95182 43.0671 8.92122 44.4668 11.3301C45.8665 13.7064 46.9408 16.5547 47.6895 19.875C48.4382 23.1628 48.8125 26.9388 48.8125 31.2031ZM34.7012 45.3633V29.2988C34.7012 26.7272 34.5547 24.4811 34.2617 22.5605C34.0013 20.64 33.5944 19.0124 33.041 17.6777C32.4876 16.3105 31.804 15.2038 30.9902 14.3574C30.1764 13.5111 29.2487 12.8926 28.207 12.502C27.1654 12.1113 26.0098 11.916 24.7402 11.916C23.1452 11.916 21.7292 12.2253 20.4922 12.8438C19.2878 13.4622 18.2624 14.4551 17.416 15.8223C16.5697 17.1569 15.9186 18.9473 15.4629 21.1934C15.0397 23.4069 14.8281 26.1087 14.8281 29.2988V45.3633C14.8281 47.9349 14.9583 50.1973 15.2188 52.1504C15.5117 54.1035 15.9349 55.7799 16.4883 57.1797C17.0742 58.5469 17.7578 59.6699 18.5391 60.5488C19.3529 61.3952 20.2806 62.0137 21.3223 62.4043C22.3965 62.7949 23.5684 62.9902 24.8379 62.9902C26.4004 62.9902 27.7839 62.681 28.9883 62.0625C30.2253 61.4115 31.2669 60.4023 32.1133 59.0352C32.9922 57.6354 33.6432 55.8125 34.0664 53.5664C34.4896 51.3203 34.7012 48.5859 34.7012 45.3633ZM72.7871 31.3496H80.3066C82.7155 31.3496 84.7012 30.9427 86.2637 30.1289C87.8262 29.2826 88.9818 28.1107 89.7305 26.6133C90.5117 25.0833 90.9023 23.3092 90.9023 21.291C90.9023 19.4681 90.5443 17.8568 89.8281 16.457C89.1445 15.0247 88.0866 13.918 86.6543 13.1367C85.222 12.3229 83.4154 11.916 81.2344 11.916C79.5091 11.916 77.9141 12.2578 76.4492 12.9414C74.9844 13.625 73.8125 14.5853 72.9336 15.8223C72.0547 17.0592 71.6152 18.5566 71.6152 20.3145H57.5039C57.5039 16.4082 58.5456 13.0065 60.6289 10.1094C62.7448 7.21224 65.5768 4.94987 69.125 3.32227C72.6732 1.69466 76.5794 0.880859 80.8438 0.880859C85.6615 0.880859 89.877 1.66211 93.4902 3.22461C97.1035 4.75456 99.9193 7.01693 101.938 10.0117C103.956 13.0065 104.965 16.7174 104.965 21.1445C104.965 23.3906 104.444 25.5716 103.402 27.6875C102.361 29.7708 100.863 31.6589 98.9102 33.3516C96.9896 35.0117 94.6458 36.3464 91.8789 37.3555C89.112 38.332 86.0033 38.8203 82.5527 38.8203H72.7871V31.3496ZM72.7871 42.043V34.7676H82.5527C86.4264 34.7676 89.8281 35.207 92.7578 36.0859C95.6875 36.9648 98.1452 38.2344 100.131 39.8945C102.117 41.5221 103.614 43.459 104.623 45.7051C105.632 47.9186 106.137 50.3763 106.137 53.0781C106.137 56.3984 105.502 59.3607 104.232 61.9648C102.963 64.5365 101.173 66.7174 98.8613 68.5078C96.5827 70.2982 93.9134 71.6654 90.8535 72.6094C87.7936 73.5208 84.457 73.9766 80.8438 73.9766C77.849 73.9766 74.903 73.5697 72.0059 72.7559C69.1413 71.9095 66.5371 70.6562 64.1934 68.9961C61.8822 67.3034 60.0267 65.1875 58.627 62.6484C57.2598 60.0768 56.5762 57.0332 56.5762 53.5176H70.6875C70.6875 55.3405 71.1432 56.9681 72.0547 58.4004C72.9661 59.8327 74.2194 60.9557 75.8145 61.7695C77.4421 62.5833 79.2487 62.9902 81.2344 62.9902C83.4805 62.9902 85.401 62.5833 86.9961 61.7695C88.6237 60.9232 89.8607 59.7513 90.707 58.2539C91.5859 56.724 92.0254 54.9499 92.0254 52.9316C92.0254 50.3275 91.5534 48.2441 90.6094 46.6816C89.6654 45.0866 88.3145 43.9147 86.5566 43.166C84.7988 42.4173 82.7155 42.043 80.3066 42.043H72.7871Z" fill="#E7E7E7"/>
</svg>
