<svg width="109" height="74" viewBox="0 0 109 74" fill="none" xmlns="http://www.w3.org/2000/svg">
<path d="M48.8125 31.2031V43.5078C48.8125 48.8464 48.2428 53.4525 47.1035 57.3262C45.9642 61.1673 44.3203 64.3249 42.1719 66.7988C40.056 69.2402 37.5332 71.0469 34.6035 72.2188C31.6738 73.3906 28.4186 73.9766 24.8379 73.9766C21.9733 73.9766 19.304 73.6185 16.8301 72.9023C14.3561 72.1536 12.1263 70.998 10.1406 69.4355C8.1875 67.873 6.49479 65.9036 5.0625 63.5273C3.66276 61.1185 2.58854 58.2539 1.83984 54.9336C1.09115 51.6133 0.716797 47.8047 0.716797 43.5078V31.2031C0.716797 25.8646 1.28646 21.291 2.42578 17.4824C3.59766 13.6413 5.24154 10.5 7.35742 8.05859C9.50586 5.61719 12.0449 3.82682 14.9746 2.6875C17.9043 1.51562 21.1595 0.929688 24.7402 0.929688C27.6048 0.929688 30.2578 1.30404 32.6992 2.05273C35.1732 2.76888 37.403 3.89193 39.3887 5.42188C41.3743 6.95182 43.0671 8.92122 44.4668 11.3301C45.8665 13.7064 46.9408 16.5547 47.6895 19.875C48.4382 23.1628 48.8125 26.9388 48.8125 31.2031ZM34.7012 45.3633V29.2988C34.7012 26.7272 34.5547 24.4811 34.2617 22.5605C34.0013 20.64 33.5944 19.0124 33.041 17.6777C32.4876 16.3105 31.804 15.2038 30.9902 14.3574C30.1764 13.5111 29.2487 12.8926 28.207 12.502C27.1654 12.1113 26.0098 11.916 24.7402 11.916C23.1452 11.916 21.7292 12.2253 20.4922 12.8438C19.2878 13.4622 18.2624 14.4551 17.416 15.8223C16.5697 17.1569 15.9186 18.9473 15.4629 21.1934C15.0397 23.4069 14.8281 26.1087 14.8281 29.2988V45.3633C14.8281 47.9349 14.9583 50.1973 15.2188 52.1504C15.5117 54.1035 15.9349 55.7799 16.4883 57.1797C17.0742 58.5469 17.7578 59.6699 18.5391 60.5488C19.3529 61.3952 20.2806 62.0137 21.3223 62.4043C22.3965 62.7949 23.5684 62.9902 24.8379 62.9902C26.4004 62.9902 27.7839 62.681 28.9883 62.0625C30.2253 61.4115 31.2669 60.4023 32.1133 59.0352C32.9922 57.6354 33.6432 55.8125 34.0664 53.5664C34.4896 51.3203 34.7012 48.5859 34.7012 45.3633ZM108.188 46.4375V57.4727H56.9668L56.2832 48.9277L85.9219 1.90625H97.1035L84.9941 22.1699L70.248 46.4375H108.188ZM100.131 1.90625V73H86.0684V1.90625H100.131Z" fill="#E7E7E7"/>
</svg>
