<svg width="22" height="22" viewBox="0 0 22 22" fill="none" xmlns="http://www.w3.org/2000/svg">
<g id="&#208;&#152;&#208;&#186;&#208;&#190;&#208;&#189;&#208;&#186;&#208;&#176;">
<path id="Vector" d="M10.5 12C12.433 12 14 10.433 14 8.5C14 6.567 12.433 5 10.5 5C8.567 5 7 6.567 7 8.5C7 10.433 8.567 12 10.5 12Z" fill="black"/>
<path id="Vector_2" d="M18.708 8.22082C18.8227 8.07044 18.9063 7.89831 18.954 7.71464C19.0016 7.53096 19.0124 7.33947 18.9857 7.1515C18.9589 6.96353 18.8951 6.78291 18.7982 6.62033C18.7012 6.45775 18.573 6.31651 18.4211 6.20498L17.8267 5.76848C17.6307 5.62465 17.4749 5.43194 17.3743 5.20909C17.2737 4.98624 17.2318 4.74084 17.2527 4.49676L17.3156 3.75608C17.3327 3.56629 17.312 3.37494 17.2545 3.19345C17.197 3.01196 17.104 2.84404 16.981 2.6997C16.8581 2.55537 16.7076 2.43757 16.5387 2.35333C16.3698 2.26909 16.1858 2.22014 15.9978 2.2094L15.2642 2.16816C15.0226 2.15423 14.7886 2.07728 14.5851 1.94478C14.3815 1.81228 14.2153 1.62874 14.1026 1.412L13.763 0.753805C13.6749 0.58594 13.5544 0.437684 13.4087 0.317829C13.2629 0.197975 13.0949 0.108963 12.9145 0.056072C12.7341 0.0031812 12.545 -0.012511 12.3586 0.00992613C12.1721 0.0323632 11.9919 0.0924726 11.8288 0.186689L11.1903 0.552736C10.9795 0.67353 10.7414 0.737018 10.4992 0.737018C10.2569 0.737018 10.0188 0.67353 9.808 0.552736L9.16949 0.186689C9.00605 0.0930073 8.82567 0.033502 8.63907 0.0117038C8.45247 -0.0100944 8.26344 0.00625856 8.0832 0.0597925C7.90297 0.113327 7.73519 0.202951 7.58983 0.323348C7.44447 0.443746 7.32448 0.592464 7.23699 0.760679L6.89736 1.41888C6.78465 1.63561 6.61846 1.81915 6.41492 1.95165C6.21138 2.08415 5.97744 2.1611 5.73582 2.17503L5.00221 2.21627C4.81419 2.22702 4.63023 2.27597 4.4613 2.3602C4.29237 2.44444 4.14193 2.56224 4.01895 2.70658C3.89598 2.85092 3.80298 3.01884 3.74551 3.20033C3.68804 3.38182 3.66727 3.57316 3.68444 3.76295L3.74727 4.50364C3.76818 4.74772 3.7263 4.99312 3.62572 5.21597C3.52514 5.43881 3.36928 5.63152 3.17329 5.77535L2.57894 6.21186C2.42705 6.32338 2.29882 6.46462 2.20184 6.6272C2.10485 6.78979 2.0411 6.97041 2.01434 7.15838C1.98757 7.34635 1.99836 7.53784 2.04604 7.72151C2.09373 7.90519 2.17735 8.07731 2.29195 8.2277L2.74026 8.81543C2.88824 9.00924 2.98415 9.23849 3.01867 9.48091C3.05319 9.72332 3.02514 9.97065 2.93725 10.1988L2.67064 10.8863C2.60249 11.0632 2.5701 11.2521 2.57539 11.4419C2.58068 11.6317 2.62355 11.8185 2.70145 11.9913C2.77935 12.164 2.89071 12.3192 3.02893 12.4476C3.16715 12.576 3.32942 12.675 3.50613 12.7388L4.19728 12.988C4.42548 13.0701 4.62878 13.2106 4.78739 13.3958C4.946 13.581 5.05453 13.8047 5.1024 14.0449L5.23486 14.698L3.47047 20.5014L6.26904 19.6147L8.01135 22L9.60252 16.7361C9.84069 16.9362 10.1376 17.0509 10.4469 17.0624C10.7562 17.0739 11.0605 16.9815 11.3126 16.7997L12.987 22L14.7293 19.6147L17.5278 20.5014L15.721 14.8922C15.7329 14.8526 15.7431 14.8148 15.7516 14.7736L15.8959 14.0449C15.9438 13.8047 16.0523 13.581 16.2109 13.3958C16.3695 13.2106 16.5728 13.0701 16.801 12.988L17.4922 12.7388C17.6689 12.675 17.8312 12.576 17.9694 12.4476C18.1076 12.3192 18.2189 12.164 18.2969 11.9913C18.3748 11.8185 18.4176 11.6317 18.4229 11.4419C18.4282 11.2521 18.3958 11.0632 18.3277 10.8863L18.0611 10.1988C17.9732 9.97065 17.9451 9.72332 17.9796 9.48091C18.0142 9.23849 18.1101 9.00924 18.258 8.81543L18.708 8.22082ZM5.65091 8.53359C5.65091 7.5632 5.93525 6.61459 6.46798 5.80774C7.00072 5.00089 7.75791 4.37202 8.64381 4.00067C9.52971 3.62931 10.5045 3.53215 11.445 3.72146C12.3855 3.91078 13.2493 4.37807 13.9274 5.06424C14.6054 5.75041 15.0672 6.62465 15.2542 7.5764C15.4413 8.52815 15.3453 9.51467 14.9783 10.4112C14.6114 11.3077 13.99 12.074 13.1927 12.6131C12.3954 13.1522 11.458 13.44 10.4992 13.44C9.21373 13.4386 7.98134 12.9213 7.07242 12.0014C6.16349 11.0816 5.65226 9.83443 5.65091 8.53359Z" fill="black"/>
</g>
</svg>
