<svg width="22" height="22" viewBox="0 0 22 22" fill="none" xmlns="http://www.w3.org/2000/svg">
<g id="&#208;&#152;&#208;&#186;&#208;&#190;&#208;&#189;&#208;&#186;&#208;&#176; 2">
<path id="Vector" d="M2.1229 5.394L0.050874 1.96535L1.43223 0.593892L4.8856 2.65108V4.02254L8.43765 7.54916V7.84304L7.15496 9.01858L3.50425 5.394H2.1229ZM16.9231 13.7207H16.1337C15.4431 13.7207 14.8511 13.6228 14.2591 13.5248L12.187 15.8759L16.8244 21.0678C17.9098 22.2434 19.7845 22.3413 20.8698 21.1658C22.0538 19.9903 21.9552 18.227 20.7711 17.1494L16.9231 13.7207ZM20.2778 9.99819C21.8565 8.43081 22.3498 6.07973 21.7578 4.02254C21.6591 3.6307 21.1658 3.53274 20.9685 3.82662L17.5151 7.25527L14.7524 4.51235L18.2058 1.0837C18.5018 0.789814 18.4031 0.397968 18.0084 0.300007C15.9364 -0.385723 13.5684 0.104084 11.9897 1.76943C10.2137 3.53274 9.819 6.27566 10.8057 8.43081L0.938885 17.1494C-0.24513 18.227 -0.343798 20.0882 0.840217 21.1658C2.02423 22.3413 3.80026 22.2434 4.8856 21.0678L13.667 11.2717C15.8377 12.2513 18.5018 11.8595 20.2778 9.99819Z" fill="black"/>
</g>
</svg>
